<svg id="Layer_1" data-name="Layer 1" xmlns="http://www.w3.org/2000/svg" viewBox="0 0 194.21 194.21"><defs><style>.cls-1{fill:#f1f2f2;}</style></defs><title>BT - GE - Phone - LG</title><polygon class="cls-1" points="172.63 0 151.05 0 151.05 21.58 129.47 21.58 129.47 43.16 107.89 43.16 107.89 64.74 129.47 64.74 129.47 86.32 107.89 86.32 107.89 107.9 86.31 107.9 86.31 129.48 64.74 129.48 64.74 107.9 43.16 107.9 43.16 129.48 21.58 129.48 21.58 151.06 0 151.06 0 172.63 21.58 172.63 21.58 194.21 43.16 194.21 64.74 194.21 86.31 194.21 86.31 172.63 107.89 172.63 107.89 151.06 129.47 151.06 129.47 129.48 151.05 129.48 151.05 107.9 172.63 107.9 172.63 86.32 194.21 86.32 194.21 64.74 194.21 43.16 194.21 21.58 172.63 21.58 172.63 0"/></svg>