<svg id="Layer_1" data-name="Layer 1" xmlns="http://www.w3.org/2000/svg" viewBox="0 0 151.05 172.63"><defs><style>.cls-1{fill:#f1f2f2;}</style></defs><title>BT - Social - LI - LG</title><polygon class="cls-1" points="129.47 64.74 129.47 86.32 129.47 107.9 129.47 129.48 129.47 151.05 129.47 172.63 151.05 172.63 151.05 151.05 151.05 129.48 151.05 107.9 151.05 86.32 151.05 64.74 129.47 64.74"/><polygon class="cls-1" points="107.89 43.16 86.31 43.16 64.73 43.16 43.16 43.16 43.16 64.74 43.16 86.32 43.16 107.9 43.16 129.48 43.16 151.05 43.16 172.63 64.73 172.63 64.73 151.05 64.73 129.48 64.73 107.9 64.73 86.32 64.73 64.74 86.31 64.74 107.89 64.74 129.47 64.74 129.47 43.16 107.89 43.16"/><polygon class="cls-1" points="0 64.74 0 86.32 0 107.9 0 129.48 0 151.05 0 172.63 21.58 172.63 21.58 151.05 21.58 129.48 21.58 107.9 21.58 86.32 21.58 64.74 21.58 43.16 0 43.16 0 64.74"/><rect class="cls-1" width="21.58" height="21.58"/></svg>