<svg id="Layer_1" data-name="Layer 1" xmlns="http://www.w3.org/2000/svg" viewBox="0 0 194.21 194.21"><defs><style>.cls-1{fill:#f1f2f2;}</style></defs><title>BT - GE - IG Send - LG</title><polygon class="cls-1" points="172.63 21.58 172.63 43.16 151.05 43.16 151.05 64.74 129.47 64.74 129.47 86.32 107.89 86.32 107.89 107.9 86.31 107.9 86.31 129.48 86.31 151.05 107.89 151.05 107.89 172.63 107.89 194.21 129.47 194.21 129.47 172.63 129.47 151.05 151.05 151.05 151.05 129.48 151.05 107.9 172.63 107.9 172.63 86.32 172.63 64.74 194.21 64.74 194.21 43.16 194.21 21.58 172.63 21.58"/><polygon class="cls-1" points="129.47 64.74 129.47 43.16 151.05 43.16 151.05 21.58 172.63 21.58 172.63 0 151.05 0 129.47 0 107.89 0 86.31 0 64.74 0 43.16 0 21.58 0 0 0 0 21.58 21.58 21.58 21.58 43.16 43.16 43.16 43.16 64.74 64.74 64.74 64.74 86.32 86.31 86.32 107.89 86.32 107.89 64.74 129.47 64.74"/></svg>