<svg id="Layer_1" data-name="Layer 1" xmlns="http://www.w3.org/2000/svg" viewBox="0 0 215.79 172.63"><defs><style>.cls-1{fill:#f1f2f2;}</style></defs><title>BT - Social - TWT - LG</title><polygon class="cls-1" points="194.21 21.58 172.63 21.58 172.63 0 151.05 0 129.47 0 129.47 21.58 107.89 21.58 107.89 43.16 107.89 64.74 86.31 64.74 64.74 64.74 64.74 43.16 43.16 43.16 21.58 43.16 21.58 64.74 43.16 64.74 43.16 86.32 21.58 86.32 21.58 107.9 43.16 107.9 43.16 129.48 64.74 129.48 64.74 151.06 43.16 151.06 21.58 151.06 21.58 172.63 43.16 172.63 64.74 172.63 86.31 172.63 107.89 172.63 129.47 172.63 129.47 151.06 151.05 151.06 151.05 129.48 172.63 129.48 172.63 107.9 172.63 86.32 194.21 86.32 194.21 64.74 194.21 43.16 215.79 43.16 215.79 21.58 194.21 21.58"/><rect class="cls-1" y="21.58" width="21.58" height="21.58"/></svg>