<svg id="Layer_1" data-name="Layer 1" xmlns="http://www.w3.org/2000/svg" viewBox="0 0 194.21 151.05"><defs><style>.cls-1{fill:#f1f2f2;}</style></defs><title>BT - GE - Arrow Curve - LG</title><polygon class="cls-1" points="172.63 129.48 151.05 129.48 129.47 129.48 129.47 107.9 107.89 107.9 86.32 107.9 86.32 86.32 64.74 86.32 64.74 64.74 64.74 43.16 86.32 43.16 86.32 21.58 64.74 21.58 64.74 0 43.16 0 43.16 21.58 21.58 21.58 21.58 43.16 43.16 43.16 43.16 64.74 43.16 86.32 43.16 107.9 64.74 107.9 64.74 129.48 86.32 129.48 107.89 129.48 107.89 151.05 129.47 151.05 151.05 151.05 172.63 151.05 194.21 151.05 194.21 129.48 172.63 129.48"/><rect class="cls-1" x="86.32" y="43.16" width="21.57" height="21.58"/><rect class="cls-1" y="43.16" width="21.58" height="21.58"/></svg>