<svg id="Layer_1" data-name="Layer 1" xmlns="http://www.w3.org/2000/svg" viewBox="0 0 237.37 237.36"><defs><style>.cls-1{fill:#f1f2f2;}</style></defs><title>BT - Social - GH - LG</title><polygon class="cls-1" points="215.79 43.15 215.79 21.57 194.21 21.57 194.21 43.15 172.63 43.15 172.63 64.73 194.21 64.73 194.21 86.31 194.21 107.89 194.21 129.47 172.63 129.47 172.63 151.05 151.05 151.05 129.47 151.05 129.47 172.63 151.05 172.63 151.05 194.2 151.05 215.78 151.05 237.36 172.63 237.36 194.21 237.36 194.21 215.78 215.79 215.78 215.79 194.2 237.37 194.2 237.37 172.63 237.37 151.05 237.37 129.47 237.37 107.89 237.37 86.31 237.37 64.73 237.37 43.15 215.79 43.15"/><polygon class="cls-1" points="194.21 21.57 194.21 0 172.63 0 151.05 0 129.47 0 107.89 0 86.32 0 64.74 0 43.16 0 43.16 21.57 64.74 21.57 64.74 43.15 86.32 43.15 107.89 43.15 129.47 43.15 151.05 43.15 172.63 43.15 172.63 21.57 194.21 21.57"/><polygon class="cls-1" points="43.16 21.57 21.58 21.57 21.58 43.15 0 43.15 0 64.73 0 86.31 0 107.89 0 129.47 0 151.05 0 172.63 0 194.2 21.58 194.2 21.58 215.78 43.16 215.78 43.16 237.36 64.74 237.36 86.32 237.36 86.32 215.78 86.32 194.2 64.74 194.2 43.16 194.2 43.16 172.63 21.58 172.63 21.58 151.05 43.16 151.05 43.16 172.63 64.74 172.63 86.32 172.63 107.89 172.63 107.89 151.05 86.32 151.05 64.74 151.05 64.74 129.47 43.16 129.47 43.16 107.89 43.16 86.31 43.16 64.73 64.74 64.73 64.74 43.15 43.16 43.15 43.16 21.57"/></svg>