<svg id="Layer_1" data-name="Layer 1" xmlns="http://www.w3.org/2000/svg" viewBox="0 0 151.05 194.21"><defs><style>.cls-1{fill:#f1f2f2;}</style></defs><title>BT - GE - IG Comment - LG</title><polygon class="cls-1" points="129.47 21.58 129.47 0 107.89 0 86.31 0 64.73 0 43.16 0 21.58 0 21.58 21.58 0 21.58 0 43.16 0 64.74 0 86.32 0 107.9 0 129.48 21.58 129.48 21.58 151.05 43.16 151.05 64.73 151.05 86.31 151.05 107.89 151.05 107.89 172.63 129.47 172.63 129.47 194.21 151.05 194.21 151.05 172.63 151.05 151.05 151.05 129.48 151.05 107.9 151.05 86.32 151.05 64.74 151.05 43.16 151.05 21.58 129.47 21.58"/></svg>