<svg id="Layer_1" data-name="Layer 1" xmlns="http://www.w3.org/2000/svg" viewBox="0 0 194.21 172.63"><defs><style>.cls-1{fill:#f1f2f2;}</style></defs><title>BT - GE - IG Heart - LG</title><polygon class="cls-1" points="172.63 21.58 172.63 0 151.05 0 129.47 0 107.89 0 107.89 21.58 86.31 21.58 86.31 0 64.74 0 43.16 0 21.58 0 21.58 21.58 0 21.58 0 43.16 0 64.74 0 86.32 21.58 86.32 21.58 107.9 43.16 107.9 43.16 129.48 64.74 129.48 64.74 151.05 86.31 151.05 86.31 172.63 107.89 172.63 107.89 151.05 129.47 151.05 129.47 129.48 151.05 129.48 151.05 107.9 172.63 107.9 172.63 86.32 194.21 86.32 194.21 64.74 194.21 43.16 194.21 21.58 172.63 21.58"/></svg>