<svg id="Layer_1" data-name="Layer 1" xmlns="http://www.w3.org/2000/svg" viewBox="0 0 194.21 194.21"><defs><style>.cls-1{fill:#f1f2f2;}</style></defs><title>BT - Social - IG - LG</title><polygon class="cls-1" points="172.63 21.58 172.63 0 151.05 0 129.47 0 107.89 0 86.31 0 64.74 0 43.16 0 21.58 0 21.58 21.58 43.16 21.58 64.74 21.58 86.31 21.58 107.89 21.58 129.47 21.58 129.47 43.16 107.89 43.16 86.31 43.16 64.74 43.16 64.74 64.74 86.31 64.74 107.89 64.74 129.47 64.74 129.47 86.32 129.47 107.9 129.47 129.48 151.05 129.48 151.05 107.9 151.05 86.32 151.05 64.74 172.63 64.74 172.63 86.32 172.63 107.9 172.63 129.48 172.63 151.06 172.63 172.63 194.21 172.63 194.21 151.06 194.21 129.48 194.21 107.9 194.21 86.32 194.21 64.74 194.21 43.16 194.21 21.58 172.63 21.58"/><polygon class="cls-1" points="129.47 172.63 107.89 172.63 86.31 172.63 64.74 172.63 43.16 172.63 21.58 172.63 21.58 194.21 43.16 194.21 64.74 194.21 86.31 194.21 107.89 194.21 129.47 194.21 151.05 194.21 172.63 194.21 172.63 172.63 151.05 172.63 129.47 172.63"/><polygon class="cls-1" points="86.31 129.48 64.74 129.48 64.74 151.06 86.31 151.06 107.89 151.06 129.47 151.06 129.47 129.48 107.89 129.48 86.31 129.48"/><polygon class="cls-1" points="43.16 86.32 43.16 107.9 43.16 129.48 64.74 129.48 64.74 107.9 64.74 86.32 64.74 64.74 43.16 64.74 43.16 86.32"/><polygon class="cls-1" points="21.58 129.48 21.58 107.9 21.58 86.32 21.58 64.74 21.58 43.16 21.58 21.58 0 21.58 0 43.16 0 64.74 0 86.32 0 107.9 0 129.48 0 151.06 0 172.63 21.58 172.63 21.58 151.06 21.58 129.48"/></svg>